# xmcd CD database file
#
# Track frame offsets:
#	150
#	17841
#	39931
#	60174
#	85722
#	106069
#	133821
#	163521
#	183651
#	205416
#	226930
#	259252
#	285143
#
# Disc length: 4440 seconds
#
# Revision: 0
# Processed by: cddbd v1.5.1PL0 Copyright (c) Steve Scherf et al.
# Submitted via: CDex 1.50Beta5
#
DISCID=a111560d
DTITLE=Higashida Tomohiro - とべ東田トモヒロ
DYEAR=1900
DGENRE=Trip-Hop
TTITLE0=BUBBLE IN A BOTTLE
TTITLE1=FIRE
TTITLE2=WAR IS NOT THE ANSWER
TTITLE3=いい
TTITLE4=風来坊
TTITLE5=ONE LOVE
TTITLE6=さくらのうた
TTITLE7=TWO OF US
TTITLE8=ジャパニーズマン
TTITLE9=星空の唄
TTITLE10=茜の旅
TTITLE11=わが古里のカントリーロード
TTITLE12=CCCD
EXTD=
EXTT0=
EXTT1=
EXTT2=
EXTT3=
EXTT4=
EXTT5=
EXTT6=
EXTT7=
EXTT8=
EXTT9=
EXTT10=
EXTT11=
EXTT12=
PLAYORDER=
